<?xml version="1.0" encoding="UTF-8" standalone="no"?>
<!DOCTYPE svg PUBLIC "-//W3C//DTD SVG 1.1//EN"
 "http://www.w3.org/Graphics/SVG/1.1/DTD/svg11.dtd">
<!-- Generated by graphviz version 2.42.3 (20191010.1750)
 -->
<!-- Title: snakemake_dag Pages: 1 -->
<svg width="102pt" height="188pt"
 viewBox="0.00 0.00 102.00 188.00" xmlns="http://www.w3.org/2000/svg" xmlns:xlink="http://www.w3.org/1999/xlink">
<g id="graph0" class="graph" transform="scale(1 1) rotate(0) translate(4 184)">
<title>snakemake_dag</title>
<polygon fill="white" stroke="transparent" points="-4,4 -4,-184 98,-184 98,4 -4,4"/>
<!-- 0 -->
<g id="node1" class="node">
<title>0</title>
<path fill="none" stroke="#5692d8" stroke-width="2" stroke-dasharray="5,2" d="M72,-36C72,-36 22,-36 22,-36 16,-36 10,-30 10,-24 10,-24 10,-12 10,-12 10,-6 16,0 22,0 22,0 72,0 72,0 78,0 84,-6 84,-12 84,-12 84,-24 84,-24 84,-30 78,-36 72,-36"/>
<text text-anchor="middle" x="47" y="-15.5" font-family="sans" font-size="10.00">makeGraph</text>
</g>
<!-- 1 -->
<g id="node2" class="node">
<title>1</title>
<path fill="none" stroke="#d85656" stroke-width="2" stroke-dasharray="5,2" d="M62,-108C62,-108 32,-108 32,-108 26,-108 20,-102 20,-96 20,-96 20,-84 20,-84 20,-78 26,-72 32,-72 32,-72 62,-72 62,-72 68,-72 74,-78 74,-84 74,-84 74,-96 74,-96 74,-102 68,-108 62,-108"/>
<text text-anchor="middle" x="47" y="-87.5" font-family="sans" font-size="10.00">freec</text>
</g>
<!-- 1&#45;&gt;0 -->
<g id="edge1" class="edge">
<title>1&#45;&gt;0</title>
<path fill="none" stroke="grey" stroke-width="2" d="M47,-71.7C47,-63.98 47,-54.71 47,-46.11"/>
<polygon fill="grey" stroke="grey" stroke-width="2" points="50.5,-46.1 47,-36.1 43.5,-46.1 50.5,-46.1"/>
</g>
<!-- 2 -->
<g id="node3" class="node">
<title>2</title>
<path fill="none" stroke="#56c9d8" stroke-width="2" stroke-dasharray="5,2" d="M82,-180C82,-180 12,-180 12,-180 6,-180 0,-174 0,-168 0,-168 0,-156 0,-156 0,-150 6,-144 12,-144 12,-144 82,-144 82,-144 88,-144 94,-150 94,-156 94,-156 94,-168 94,-168 94,-174 88,-180 82,-180"/>
<text text-anchor="middle" x="47" y="-165" font-family="sans" font-size="10.00">config</text>
<text text-anchor="middle" x="47" y="-154" font-family="sans" font-size="10.00">sample: YC_017</text>
</g>
<!-- 2&#45;&gt;1 -->
<g id="edge2" class="edge">
<title>2&#45;&gt;1</title>
<path fill="none" stroke="grey" stroke-width="2" d="M47,-143.7C47,-135.98 47,-126.71 47,-118.11"/>
<polygon fill="grey" stroke="grey" stroke-width="2" points="50.5,-118.1 47,-108.1 43.5,-118.1 50.5,-118.1"/>
</g>
</g>
</svg>
