<?xml version="1.0" encoding="UTF-8" standalone="no"?>
<!DOCTYPE svg PUBLIC "-//W3C//DTD SVG 1.1//EN"
 "http://www.w3.org/Graphics/SVG/1.1/DTD/svg11.dtd">
<!-- Generated by graphviz version 2.42.3 (20191010.1750)
 -->
<!-- Title: snakemake_dag Pages: 1 -->
<svg width="270pt" height="332pt"
 viewBox="0.00 0.00 270.00 332.00" xmlns="http://www.w3.org/2000/svg" xmlns:xlink="http://www.w3.org/1999/xlink">
<g id="graph0" class="graph" transform="scale(1 1) rotate(0) translate(4 328)">
<title>snakemake_dag</title>
<polygon fill="white" stroke="transparent" points="-4,4 -4,-328 266,-328 266,4 -4,4"/>
<!-- 0 -->
<g id="node1" class="node">
<title>0</title>
<path fill="none" stroke="#d85656" stroke-width="2" d="M156,-36C156,-36 126,-36 126,-36 120,-36 114,-30 114,-24 114,-24 114,-12 114,-12 114,-6 120,0 126,0 126,0 156,0 156,0 162,0 168,-6 168,-12 168,-12 168,-24 168,-24 168,-30 162,-36 156,-36"/>
<text text-anchor="middle" x="141" y="-15.5" font-family="sans" font-size="10.00">all</text>
</g>
<!-- 1 -->
<g id="node2" class="node">
<title>1</title>
<path fill="none" stroke="#d8bc56" stroke-width="2" d="M120.5,-108C120.5,-108 67.5,-108 67.5,-108 61.5,-108 55.5,-102 55.5,-96 55.5,-96 55.5,-84 55.5,-84 55.5,-78 61.5,-72 67.5,-72 67.5,-72 120.5,-72 120.5,-72 126.5,-72 132.5,-78 132.5,-84 132.5,-84 132.5,-96 132.5,-96 132.5,-102 126.5,-108 120.5,-108"/>
<text text-anchor="middle" x="94" y="-87.5" font-family="sans" font-size="10.00">Convert2Vcf</text>
</g>
<!-- 1&#45;&gt;0 -->
<g id="edge1" class="edge">
<title>1&#45;&gt;0</title>
<path fill="none" stroke="grey" stroke-width="2" d="M105.62,-71.7C111.14,-63.47 117.85,-53.48 123.93,-44.42"/>
<polygon fill="grey" stroke="grey" stroke-width="2" points="126.85,-46.36 129.52,-36.1 121.04,-42.46 126.85,-46.36"/>
</g>
<!-- 2 -->
<g id="node3" class="node">
<title>2</title>
<path fill="none" stroke="#d8bc56" stroke-width="2" d="M221.5,-108C221.5,-108 168.5,-108 168.5,-108 162.5,-108 156.5,-102 156.5,-96 156.5,-96 156.5,-84 156.5,-84 156.5,-78 162.5,-72 168.5,-72 168.5,-72 221.5,-72 221.5,-72 227.5,-72 233.5,-78 233.5,-84 233.5,-84 233.5,-96 233.5,-96 233.5,-102 227.5,-108 221.5,-108"/>
<text text-anchor="middle" x="195" y="-87.5" font-family="sans" font-size="10.00">Convert2Vcf</text>
</g>
<!-- 2&#45;&gt;0 -->
<g id="edge2" class="edge">
<title>2&#45;&gt;0</title>
<path fill="none" stroke="grey" stroke-width="2" d="M181.65,-71.7C175.24,-63.39 167.44,-53.28 160.39,-44.14"/>
<polygon fill="grey" stroke="grey" stroke-width="2" points="163.07,-41.88 154.19,-36.1 157.53,-46.16 163.07,-41.88"/>
</g>
<!-- 3 -->
<g id="node4" class="node">
<title>3</title>
<path fill="none" stroke="#88d856" stroke-width="2" d="M100.5,-180C100.5,-180 65.5,-180 65.5,-180 59.5,-180 53.5,-174 53.5,-168 53.5,-168 53.5,-156 53.5,-156 53.5,-150 59.5,-144 65.5,-144 65.5,-144 100.5,-144 100.5,-144 106.5,-144 112.5,-150 112.5,-156 112.5,-156 112.5,-168 112.5,-168 112.5,-174 106.5,-180 100.5,-180"/>
<text text-anchor="middle" x="83" y="-159.5" font-family="sans" font-size="10.00">CallIndel</text>
</g>
<!-- 3&#45;&gt;1 -->
<g id="edge3" class="edge">
<title>3&#45;&gt;1</title>
<path fill="none" stroke="grey" stroke-width="2" d="M85.72,-143.7C86.93,-135.98 88.39,-126.71 89.74,-118.11"/>
<polygon fill="grey" stroke="grey" stroke-width="2" points="93.22,-118.53 91.31,-108.1 86.3,-117.44 93.22,-118.53"/>
</g>
<!-- 4 -->
<g id="node5" class="node">
<title>4</title>
<path fill="none" stroke="#88d856" stroke-width="2" d="M215.5,-180C215.5,-180 180.5,-180 180.5,-180 174.5,-180 168.5,-174 168.5,-168 168.5,-168 168.5,-156 168.5,-156 168.5,-150 174.5,-144 180.5,-144 180.5,-144 215.5,-144 215.5,-144 221.5,-144 227.5,-150 227.5,-156 227.5,-156 227.5,-168 227.5,-168 227.5,-174 221.5,-180 215.5,-180"/>
<text text-anchor="middle" x="198" y="-159.5" font-family="sans" font-size="10.00">CallIndel</text>
</g>
<!-- 4&#45;&gt;2 -->
<g id="edge4" class="edge">
<title>4&#45;&gt;2</title>
<path fill="none" stroke="grey" stroke-width="2" d="M197.26,-143.7C196.93,-135.98 196.53,-126.71 196.16,-118.11"/>
<polygon fill="grey" stroke="grey" stroke-width="2" points="199.66,-117.95 195.73,-108.1 192.66,-118.25 199.66,-117.95"/>
</g>
<!-- 5 -->
<g id="node6" class="node">
<title>5</title>
<path fill="none" stroke="#56c1d8" stroke-width="2" d="M110,-252C110,-252 12,-252 12,-252 6,-252 0,-246 0,-240 0,-240 0,-228 0,-228 0,-222 6,-216 12,-216 12,-216 110,-216 110,-216 116,-216 122,-222 122,-228 122,-228 122,-240 122,-240 122,-246 116,-252 110,-252"/>
<text text-anchor="middle" x="61" y="-231.5" font-family="sans" font-size="10.00">generate_bam_config</text>
</g>
<!-- 5&#45;&gt;3 -->
<g id="edge5" class="edge">
<title>5&#45;&gt;3</title>
<path fill="none" stroke="grey" stroke-width="2" d="M66.44,-215.7C68.89,-207.9 71.84,-198.51 74.57,-189.83"/>
<polygon fill="grey" stroke="grey" stroke-width="2" points="77.96,-190.69 77.62,-180.1 71.29,-188.59 77.96,-190.69"/>
</g>
<!-- 6 -->
<g id="node7" class="node">
<title>6</title>
<path fill="none" stroke="#56c1d8" stroke-width="2" d="M250,-252C250,-252 152,-252 152,-252 146,-252 140,-246 140,-240 140,-240 140,-228 140,-228 140,-222 146,-216 152,-216 152,-216 250,-216 250,-216 256,-216 262,-222 262,-228 262,-228 262,-240 262,-240 262,-246 256,-252 250,-252"/>
<text text-anchor="middle" x="201" y="-231.5" font-family="sans" font-size="10.00">generate_bam_config</text>
</g>
<!-- 6&#45;&gt;4 -->
<g id="edge6" class="edge">
<title>6&#45;&gt;4</title>
<path fill="none" stroke="grey" stroke-width="2" d="M200.26,-215.7C199.93,-207.98 199.53,-198.71 199.16,-190.11"/>
<polygon fill="grey" stroke="grey" stroke-width="2" points="202.66,-189.95 198.73,-180.1 195.66,-190.25 202.66,-189.95"/>
</g>
<!-- 7 -->
<g id="node8" class="node">
<title>7</title>
<path fill="none" stroke="#56d88a" stroke-width="2" d="M108.5,-324C108.5,-324 13.5,-324 13.5,-324 7.5,-324 1.5,-318 1.5,-312 1.5,-312 1.5,-300 1.5,-300 1.5,-294 7.5,-288 13.5,-288 13.5,-288 108.5,-288 108.5,-288 114.5,-288 120.5,-294 120.5,-300 120.5,-300 120.5,-312 120.5,-312 120.5,-318 114.5,-324 108.5,-324"/>
<text text-anchor="middle" x="61" y="-309" font-family="sans" font-size="10.00">calculate_insert_size</text>
<text text-anchor="middle" x="61" y="-298" font-family="sans" font-size="10.00">sample: 166</text>
</g>
<!-- 7&#45;&gt;5 -->
<g id="edge7" class="edge">
<title>7&#45;&gt;5</title>
<path fill="none" stroke="grey" stroke-width="2" d="M61,-287.7C61,-279.98 61,-270.71 61,-262.11"/>
<polygon fill="grey" stroke="grey" stroke-width="2" points="64.5,-262.1 61,-252.1 57.5,-262.1 64.5,-262.1"/>
</g>
<!-- 8 -->
<g id="node9" class="node">
<title>8</title>
<path fill="none" stroke="#56d88a" stroke-width="2" d="M248.5,-324C248.5,-324 153.5,-324 153.5,-324 147.5,-324 141.5,-318 141.5,-312 141.5,-312 141.5,-300 141.5,-300 141.5,-294 147.5,-288 153.5,-288 153.5,-288 248.5,-288 248.5,-288 254.5,-288 260.5,-294 260.5,-300 260.5,-300 260.5,-312 260.5,-312 260.5,-318 254.5,-324 248.5,-324"/>
<text text-anchor="middle" x="201" y="-309" font-family="sans" font-size="10.00">calculate_insert_size</text>
<text text-anchor="middle" x="201" y="-298" font-family="sans" font-size="10.00">sample: 120</text>
</g>
<!-- 8&#45;&gt;6 -->
<g id="edge8" class="edge">
<title>8&#45;&gt;6</title>
<path fill="none" stroke="grey" stroke-width="2" d="M201,-287.7C201,-279.98 201,-270.71 201,-262.11"/>
<polygon fill="grey" stroke="grey" stroke-width="2" points="204.5,-262.1 201,-252.1 197.5,-262.1 204.5,-262.1"/>
</g>
</g>
</svg>
