<?xml version="1.0" encoding="UTF-8" standalone="no"?>
<!DOCTYPE svg PUBLIC "-//W3C//DTD SVG 1.1//EN"
 "http://www.w3.org/Graphics/SVG/1.1/DTD/svg11.dtd">
<!-- Generated by graphviz version 2.42.3 (20191010.1750)
 -->
<!-- Title: snakemake_dag Pages: 1 -->
<svg width="232pt" height="404pt"
 viewBox="0.00 0.00 231.50 404.00" xmlns="http://www.w3.org/2000/svg" xmlns:xlink="http://www.w3.org/1999/xlink">
<g id="graph0" class="graph" transform="scale(1 1) rotate(0) translate(4 400)">
<title>snakemake_dag</title>
<polygon fill="white" stroke="transparent" points="-4,4 -4,-400 227.5,-400 227.5,4 -4,4"/>
<!-- 0 -->
<g id="node1" class="node">
<title>0</title>
<path fill="none" stroke="#80d856" stroke-width="2" stroke-dasharray="5,2" d="M131.5,-36C131.5,-36 93.5,-36 93.5,-36 87.5,-36 81.5,-30 81.5,-24 81.5,-24 81.5,-12 81.5,-12 81.5,-6 87.5,0 93.5,0 93.5,0 131.5,0 131.5,0 137.5,0 143.5,-6 143.5,-12 143.5,-12 143.5,-24 143.5,-24 143.5,-30 137.5,-36 131.5,-36"/>
<text text-anchor="middle" x="112.5" y="-15.5" font-family="sans" font-size="10.00">DNAcopy</text>
</g>
<!-- 1 -->
<g id="node2" class="node">
<title>1</title>
<path fill="none" stroke="#d8ac56" stroke-width="2" stroke-dasharray="5,2" d="M130,-108C130,-108 95,-108 95,-108 89,-108 83,-102 83,-96 83,-96 83,-84 83,-84 83,-78 89,-72 95,-72 95,-72 130,-72 130,-72 136,-72 142,-78 142,-84 142,-84 142,-96 142,-96 142,-102 136,-108 130,-108"/>
<text text-anchor="middle" x="112.5" y="-87.5" font-family="sans" font-size="10.00">filter_chr</text>
</g>
<!-- 1&#45;&gt;0 -->
<g id="edge1" class="edge">
<title>1&#45;&gt;0</title>
<path fill="none" stroke="grey" stroke-width="2" d="M112.5,-71.7C112.5,-63.98 112.5,-54.71 112.5,-46.11"/>
<polygon fill="grey" stroke="grey" stroke-width="2" points="116,-46.1 112.5,-36.1 109,-46.1 116,-46.1"/>
</g>
<!-- 2 -->
<g id="node3" class="node">
<title>2</title>
<path fill="none" stroke="#59d856" stroke-width="2" stroke-dasharray="5,2" d="M130,-180C130,-180 95,-180 95,-180 89,-180 83,-174 83,-168 83,-168 83,-156 83,-156 83,-150 89,-144 95,-144 95,-144 130,-144 130,-144 136,-144 142,-150 142,-156 142,-156 142,-168 142,-168 142,-174 136,-180 130,-180"/>
<text text-anchor="middle" x="112.5" y="-159.5" font-family="sans" font-size="10.00">log_ratio</text>
</g>
<!-- 2&#45;&gt;1 -->
<g id="edge2" class="edge">
<title>2&#45;&gt;1</title>
<path fill="none" stroke="grey" stroke-width="2" d="M112.5,-143.7C112.5,-135.98 112.5,-126.71 112.5,-118.11"/>
<polygon fill="grey" stroke="grey" stroke-width="2" points="116,-118.1 112.5,-108.1 109,-118.1 116,-118.1"/>
</g>
<!-- 3 -->
<g id="node4" class="node">
<title>3</title>
<path fill="none" stroke="#56d8a9" stroke-width="2" stroke-dasharray="5,2" d="M127.5,-252C127.5,-252 97.5,-252 97.5,-252 91.5,-252 85.5,-246 85.5,-240 85.5,-240 85.5,-228 85.5,-228 85.5,-222 91.5,-216 97.5,-216 97.5,-216 127.5,-216 127.5,-216 133.5,-216 139.5,-222 139.5,-228 139.5,-228 139.5,-240 139.5,-240 139.5,-246 133.5,-252 127.5,-252"/>
<text text-anchor="middle" x="112.5" y="-231.5" font-family="sans" font-size="10.00">paste</text>
</g>
<!-- 3&#45;&gt;2 -->
<g id="edge3" class="edge">
<title>3&#45;&gt;2</title>
<path fill="none" stroke="grey" stroke-width="2" d="M112.5,-215.7C112.5,-207.98 112.5,-198.71 112.5,-190.11"/>
<polygon fill="grey" stroke="grey" stroke-width="2" points="116,-190.1 112.5,-180.1 109,-190.1 116,-190.1"/>
</g>
<!-- 4 -->
<g id="node5" class="node">
<title>4</title>
<path fill="none" stroke="#d6d856" stroke-width="2" stroke-dasharray="5,2" d="M127.5,-324C127.5,-324 97.5,-324 97.5,-324 91.5,-324 85.5,-318 85.5,-312 85.5,-312 85.5,-300 85.5,-300 85.5,-294 91.5,-288 97.5,-288 97.5,-288 127.5,-288 127.5,-288 133.5,-288 139.5,-294 139.5,-300 139.5,-300 139.5,-312 139.5,-312 139.5,-318 133.5,-324 127.5,-324"/>
<text text-anchor="middle" x="112.5" y="-303.5" font-family="sans" font-size="10.00">gunzip</text>
</g>
<!-- 4&#45;&gt;3 -->
<g id="edge4" class="edge">
<title>4&#45;&gt;3</title>
<path fill="none" stroke="grey" stroke-width="2" d="M112.5,-287.7C112.5,-279.98 112.5,-270.71 112.5,-262.11"/>
<polygon fill="grey" stroke="grey" stroke-width="2" points="116,-262.1 112.5,-252.1 109,-262.1 116,-262.1"/>
</g>
<!-- 5 -->
<g id="node6" class="node">
<title>5</title>
<path fill="none" stroke="#d85656" stroke-width="2" stroke-dasharray="5,2" d="M93,-396C93,-396 12,-396 12,-396 6,-396 0,-390 0,-384 0,-384 0,-372 0,-372 0,-366 6,-360 12,-360 12,-360 93,-360 93,-360 99,-360 105,-366 105,-372 105,-372 105,-384 105,-384 105,-390 99,-396 93,-396"/>
<text text-anchor="middle" x="52.5" y="-381" font-family="sans" font-size="10.00">mosdepth_normal</text>
<text text-anchor="middle" x="52.5" y="-370" font-family="sans" font-size="10.00">sample: YC_017</text>
</g>
<!-- 5&#45;&gt;4 -->
<g id="edge5" class="edge">
<title>5&#45;&gt;4</title>
<path fill="none" stroke="grey" stroke-width="2" d="M67.33,-359.7C74.52,-351.3 83.3,-341.07 91.19,-331.86"/>
<polygon fill="grey" stroke="grey" stroke-width="2" points="93.99,-333.97 97.84,-324.1 88.67,-329.42 93.99,-333.97"/>
</g>
<!-- 6 -->
<g id="node7" class="node">
<title>6</title>
<path fill="none" stroke="#5682d8" stroke-width="2" stroke-dasharray="5,2" d="M211.5,-396C211.5,-396 135.5,-396 135.5,-396 129.5,-396 123.5,-390 123.5,-384 123.5,-384 123.5,-372 123.5,-372 123.5,-366 129.5,-360 135.5,-360 135.5,-360 211.5,-360 211.5,-360 217.5,-360 223.5,-366 223.5,-372 223.5,-372 223.5,-384 223.5,-384 223.5,-390 217.5,-396 211.5,-396"/>
<text text-anchor="middle" x="173.5" y="-381" font-family="sans" font-size="10.00">mosdepth_tumor</text>
<text text-anchor="middle" x="173.5" y="-370" font-family="sans" font-size="10.00">sample: YC_017</text>
</g>
<!-- 6&#45;&gt;4 -->
<g id="edge6" class="edge">
<title>6&#45;&gt;4</title>
<path fill="none" stroke="grey" stroke-width="2" d="M158.42,-359.7C151.11,-351.3 142.19,-341.07 134.16,-331.86"/>
<polygon fill="grey" stroke="grey" stroke-width="2" points="136.61,-329.34 127.41,-324.1 131.34,-333.94 136.61,-329.34"/>
</g>
</g>
</svg>
